<svg width="1096" height="543" viewBox="0 0 1096 543" fill="none" xmlns="http://www.w3.org/2000/svg">
<path d="M199.5 474V374.5H11V345L183 124H257V364.5H325V374.5H257V474H199.5ZM55 364.5H199.5V180L55 364.5Z" fill="#F5F5F5"/>
<path d="M966.5 474V374.5H778V345L950 124H1024V364.5H1092V374.5H1024V474H966.5ZM822 364.5H966.5V180L822 364.5Z" fill="#F5F5F5"/>
<path d="M557 477.5C527.333 477.5 500.667 469.833 477 454.5C453.667 438.833 435.5 417.167 422.5 389.5C409.5 361.5 403 330 403 295C403 259.667 409.5 228.167 422.5 200.5C435.5 172.833 453.667 151.333 477 136C500.667 120.333 527.333 112.5 557 112.5C586.667 112.5 613.167 120.333 636.5 136C659.833 151.333 678 172.833 691 200.5C704 228.167 710.5 259.667 710.5 295C710.5 330 704 361.5 691 389.5C678 417.167 659.833 438.833 636.5 454.5C613.167 469.833 586.667 477.5 557 477.5ZM557 425C575.667 425 592.167 419.667 606.5 409C620.833 398 632 382.667 640 363C648 343.333 652 320.667 652 295C652 269.333 648 246.667 640 227C632 207.333 620.833 192.167 606.5 181.5C592.167 170.5 575.667 165 557 165C538.333 165 521.833 170.5 507.5 181.5C493.167 192.167 482 207.333 474 227C466 246.667 462 269.333 462 295C462 320.667 466 343.333 474 363C482 382.667 493.167 398 507.5 409C521.833 419.667 538.333 425 557 425Z" fill="#F5F5F5"/>
<path d="M475.5 391.5C479.167 381.5 500.1 357 550.5 347C600.9 337 630.667 269.5 638 239.5" stroke="#F5F5F5" stroke-width="4" stroke-linecap="round"/>
<path d="M531.5 169.5C534.167 224.833 553.5 305.4 595.5 183" stroke="#F5F5F5" stroke-width="4" stroke-linecap="round"/>
<path d="M545.5 169C551.833 203.5 568.1 253.2 582.5 176" stroke="#F5F5F5" stroke-width="4" stroke-linecap="round"/>
<path d="M499.5 183.5C515.333 208 533.9 286.5 475.5 390.5" stroke="#F5F5F5" stroke-width="4" stroke-linecap="round"/>
<path d="M484.5 195C498.667 232.5 515.8 322.6 467 373" stroke="#F5F5F5" stroke-width="4" stroke-linecap="round"/>
<path d="M464 223.5C474 254.5 502 318 453.5 343" stroke="#F5F5F5" stroke-width="4" stroke-linecap="round"/>
<path d="M521.5 172C522.167 256 540 379.7 604 190.5" stroke="#F5F5F5" stroke-width="4" stroke-linecap="round"/>
<path d="M642.5 324C610.833 336.833 549.9 375.7 559.5 428.5" stroke="#F5F5F5" stroke-width="4" stroke-linecap="round"/>
<path d="M634.5 364C610 364.167 562.6 376.5 581 422.5" stroke="#F5F5F5" stroke-width="4" stroke-linecap="round"/>
<path d="M626 384.5C612.167 382.833 582.5 387.5 594.5 415.5" stroke="#F5F5F5" stroke-width="4" stroke-linecap="round"/>
<path d="M515.5 428C500.5 406 516.6 390.2 555 361C603 324.5 630 326.5 644.5 272" stroke="#F5F5F5" stroke-width="4" stroke-linecap="round"/>
</svg>
