<svg width="1440" height="6862" viewBox="0 0 1440 6862" fill="none" xmlns="http://www.w3.org/2000/svg">
<path d="M98.1817 0C130.909 173.257 114.545 415.818 0 519.772" stroke="#F1DED0" stroke-opacity="0.29" stroke-width="0.5" stroke-linecap="round"/>
<path d="M229.091 0C289.091 259.886 327.272 842.031 0 1091.52" stroke="#F1DED0" stroke-opacity="0.29" stroke-width="0.5" stroke-linecap="round"/>
<path d="M556.363 0C529.091 450.469 382.909 1361.8 16.3638 1403.39" stroke="#F1DED0" stroke-opacity="0.29" stroke-width="0.5" stroke-linecap="round"/>
<path d="M801.818 0C758.181 485.121 540 1528.13 16.3638 1819.2" stroke="#F1DED0" stroke-opacity="0.29" stroke-width="0.5" stroke-linecap="round"/>
<path d="M1096.36 0C932.727 589.075 582.545 1767.23 490.909 1767.23C399.272 1767.23 125.454 2772.12 0 3274.56" stroke="#F1DED0" stroke-opacity="0.29" stroke-width="0.5" stroke-linecap="round"/>
<path d="M1423.64 0C605.455 1576.64 -697.09 5156.14 638.182 6860.99" stroke="#F1DED0" stroke-opacity="0.29" stroke-width="0.5" stroke-linecap="round"/>
<path d="M0 6133.31C27.2727 6358.54 111.273 6819.41 229.091 6860.99" stroke="#F1DED0" stroke-opacity="0.29" stroke-width="0.5" stroke-linecap="round"/>
<path d="M1440 623.73C752.728 2061.77 -212.726 4563.6 1423.64 3066.66" stroke="#F1DED0" stroke-opacity="0.29" stroke-width="0.5" stroke-linecap="round"/>
<path d="M1423.64 1143.51C1036.37 1957.82 343.636 3846.32 1423.64 2650.85" stroke="#F1DED0" stroke-opacity="0.29" stroke-width="0.5" stroke-linecap="round"/>
<path d="M1423.63 3430.5C763.635 3673.06 -16.3632 4781.9 850.908 6860.99" stroke="#F1DED0" stroke-opacity="0.29" stroke-width="0.5" stroke-linecap="round"/>
<path d="M1440 4054.23C1014.55 4210.16 212.727 4366.09 949.091 6809.02" stroke="#F1DED0" stroke-opacity="0.29" stroke-width="0.5" stroke-linecap="round"/>
<path d="M1423.64 4677.96C1107.27 4729.93 490.908 4418.07 1047.27 6861" stroke="#F1DED0" stroke-opacity="0.29" stroke-width="0.5" stroke-linecap="round"/>
<path d="M1423.64 5145.74C1216.36 5267.02 785.454 4729.93 1161.82 6860.99" stroke="#F1DED0" stroke-opacity="0.29" stroke-width="0.5" stroke-linecap="round"/>
<path d="M1440 5676.38C1301.31 5770.4 1041.28 5055.87 1266.64 6860.99" stroke="#F1DED0" stroke-opacity="0.29" stroke-width="0.5" stroke-linecap="round"/>
<path d="M1390.91 6860.99H1423.64" stroke="#F1DED0" stroke-opacity="0.29" stroke-width="0.5" stroke-linecap="round"/>
</svg>
