<?xml version="1.0" encoding="utf-8"?><svg viewBox="0 0 1434 1024" xmlns="http://www.w3.org/2000/svg" xmlns:xlink="http://www.w3.org/1999/xlink"><style>:root>svg{display:none}:root>svg:target{display:block}</style><svg viewBox="0 0 1434 1024" id="404" xmlns="http://www.w3.org/2000/svg"><path d="M99.25 0C132 25.859 115.625 62.06 1 77.576M230.25 0C290.291 38.788 328.5 125.673 1 162.909M557.75 0C530.458 67.232 384.175 203.248 17.375 209.454"/><path d="M803.374 0C759.708 72.404 541.375 228.072 17.375 271.515M1098.12 0C934.374 87.92 583.95 263.757 492.25 263.757c-91.7 0-365.708 149.98-491.25 224.97"/><path d="M1425.62 0C606.875 235.313-696.574 769.551 639.625 1024M1 915.392C28.292 949.008 112.35 1017.79 230.25 1024M1442 93.091c-687.749 214.626-1653.874 588.024-16.37 364.606"/><path d="M1425.63 170.668c-387.55 121.535-1080.755 403.393 0 224.969m-.01 116.362C765.166 548.201-15.375 713.696 852.499 1024M1442 605.091c-425.75 23.272-1228.125 46.545-491.25 411.149M1425.62 698.182C1109.04 705.94 492.249 659.394 1049 1024M1425.62 767.999c-207.41 18.101-638.621-62.06-262 256.001"/><path d="M1442 847.196c-138.78 14.032-399-92.611-173.48 176.804m124.35 0h32.75"/></svg><svg viewBox="0 0 1096 543" id="404-title" xmlns="http://www.w3.org/2000/svg"><path d="M199.5 474v-99.5H11V345l172-221h74v240.5h68v10h-68V474h-57.5zM55 364.5h144.5V180L55 364.5zM966.5 474v-99.5H778V345l172-221h74v240.5h68v10h-68V474h-57.5zM822 364.5h144.5V180L822 364.5zm-265 113c-29.667 0-56.333-7.667-80-23-23.333-15.667-41.5-37.333-54.5-65-13-28-19.5-59.5-19.5-94.5 0-35.333 6.5-66.833 19.5-94.5s31.167-49.167 54.5-64.5c23.667-15.667 50.333-23.5 80-23.5s56.167 7.833 79.5 23.5c23.333 15.333 41.5 36.833 54.5 64.5s19.5 59.167 19.5 94.5c0 35-6.5 66.5-19.5 94.5-13 27.667-31.167 49.333-54.5 65-23.333 15.333-49.833 23-79.5 23zm0-52.5c18.667 0 35.167-5.333 49.5-16 14.333-11 25.5-26.333 33.5-46s12-42.333 12-68-4-48.333-12-68-19.167-34.833-33.5-45.5c-14.333-11-30.833-16.5-49.5-16.5s-35.167 5.5-49.5 16.5C493.167 192.167 482 207.333 474 227s-12 42.333-12 68 4 48.333 12 68 19.167 35 33.5 46c14.333 10.667 30.833 16 49.5 16z"/><path d="M475.5 391.5c3.667-10 24.6-34.5 75-44.5s80.167-77.5 87.5-107.5m-106.5-70c2.667 55.333 22 135.9 64 13.5"/><path d="M545.5 169c6.333 34.5 22.6 84.2 37 7m-83 7.5c15.833 24.5 34.4 103-24 207M484.5 195c14.167 37.5 31.3 127.6-17.5 178"/><path d="M464 223.5c10 31 38 94.5-10.5 119.5m68-171c.667 84 18.5 207.7 82.5 18.5M642.5 324c-31.667 12.833-92.6 51.7-83 104.5M634.5 364c-24.5.167-71.9 12.5-53.5 58.5"/><path d="M626 384.5c-13.833-1.667-43.5 3-31.5 31m-79 12.5c-15-22 1.1-37.8 39.5-67 48-36.5 75-34.5 89.5-89"/></svg><svg viewBox="0 0 50 50" id="geo" xmlns="http://www.w3.org/2000/svg"><g clip-path="url(#ca)"><path d="M38.019 27.938c-1.638 3.318-3.856 6.625-6.125 9.593A98.405 98.405 0 0125 45.563a98.348 98.348 0 01-6.894-8.032c-2.269-2.968-4.487-6.275-6.125-9.593-1.656-3.354-2.606-6.494-2.606-9.188a15.625 15.625 0 1131.25 0c0 2.694-.953 5.834-2.606 9.188zM25 50s18.75-17.769 18.75-31.25a18.75 18.75 0 10-37.5 0C6.25 32.231 25 50 25 50z"/><path d="M25 25a6.25 6.25 0 110-12.5A6.25 6.25 0 0125 25zm0 3.125a9.375 9.375 0 100-18.75 9.375 9.375 0 000 18.75z"/></g><defs><clipPath id="ca"><path d="M0 0h50v50H0z"/></clipPath></defs></svg><svg viewBox="0 0 57 54" id="left" xmlns="http://www.w3.org/2000/svg"><path d="M2 27l25 25m27.083-25H2h52.083zM2 27L27 2 2 27z"/></svg><svg viewBox="0 0 197 84" id="logo" xmlns="http://www.w3.org/2000/svg"><path d="M92.877 38.224V2.205h16.157c4.15 0 7.341.84 9.57 2.521 2.23 1.647 3.345 3.911 3.345 6.793 0 1.955-.446 3.601-1.338 4.94-.858 1.337-2.024 2.366-3.499 3.087-1.475.72-3.07 1.08-4.785 1.08l.926-1.544c2.058 0 3.876.36 5.454 1.081 1.578.72 2.83 1.784 3.756 3.19.927 1.372 1.39 3.088 1.39 5.146 0 3.087-1.167 5.488-3.499 7.204-2.299 1.68-5.729 2.52-10.291 2.52H92.877zm5.145-4.168h11.835c2.847 0 5.025-.48 6.535-1.44 1.509-.961 2.264-2.47 2.264-4.529 0-2.092-.755-3.619-2.264-4.58-1.51-.96-3.688-1.44-6.535-1.44H97.559v-4.168h11.012c2.607 0 4.631-.48 6.071-1.44 1.441-.961 2.161-2.402 2.161-4.323 0-1.921-.72-3.362-2.161-4.322-1.44-.96-3.464-1.441-6.071-1.441H98.022v27.683zm33.798 4.168V2.205h5.145v36.019h-5.145zm32.189.412c-2.745 0-5.3-.464-7.667-1.39-2.333-.926-4.357-2.212-6.072-3.859a18.22 18.22 0 01-4.013-5.866c-.961-2.23-1.441-4.665-1.441-7.306 0-2.642.48-5.077 1.441-7.307a17.643 17.643 0 014.013-5.815c1.715-1.68 3.739-2.984 6.072-3.91 2.333-.926 4.888-1.39 7.667-1.39 2.744 0 5.265.464 7.564 1.39 2.332.892 4.356 2.178 6.071 3.859a16.674 16.674 0 014.014 5.814c.96 2.23 1.441 4.683 1.441 7.359 0 2.675-.481 5.128-1.441 7.358a17.197 17.197 0 01-4.014 5.865c-1.715 1.647-3.739 2.933-6.071 3.86-2.299.892-4.82 1.337-7.564 1.337zm0-4.58c1.989 0 3.825-.343 5.505-1.03 1.716-.685 3.191-1.646 4.426-2.88a13.318 13.318 0 002.933-4.426c.72-1.68 1.08-3.516 1.08-5.505 0-1.99-.36-3.825-1.08-5.506a12.769 12.769 0 00-2.933-4.374c-1.235-1.27-2.71-2.247-4.426-2.933-1.68-.686-3.516-1.029-5.505-1.029-2.024 0-3.894.343-5.609 1.03a13.296 13.296 0 00-4.425 2.932 13.388 13.388 0 00-2.984 4.374c-.687 1.68-1.03 3.516-1.03 5.506 0 1.99.343 3.824 1.03 5.505a13.983 13.983 0 002.984 4.425 13.699 13.699 0 004.425 2.882c1.715.686 3.585 1.029 5.609 1.029zm-57.568 47.537c-2.416 0-4.651-.4-6.705-1.2-2.023-.832-3.79-1.987-5.3-3.466a16.76 16.76 0 01-3.489-5.266c-.845-2.002-1.268-4.204-1.268-6.607 0-2.402.423-4.604 1.269-6.606a15.86 15.86 0 013.533-5.22 15.46 15.46 0 015.3-3.466c2.054-.831 4.289-1.247 6.705-1.247 2.447 0 4.697.431 6.75 1.294a13.627 13.627 0 015.301 3.742l-2.945 2.91c-1.208-1.293-2.567-2.248-4.077-2.864-1.51-.647-3.126-.97-4.847-.97-1.782 0-3.443.308-4.984.924a11.926 11.926 0 00-3.941 2.587c-1.117 1.108-1.993 2.433-2.628 3.973-.604 1.509-.906 3.157-.906 4.943 0 1.787.302 3.45.906 4.99a12.036 12.036 0 002.628 3.927 11.924 11.924 0 003.941 2.587c1.541.616 3.202.924 4.984.924 1.721 0 3.337-.308 4.847-.924 1.51-.647 2.869-1.633 4.077-2.957l2.945 2.91c-1.45 1.664-3.217 2.926-5.301 3.789-2.053.862-4.318 1.293-6.795 1.293zm25.542-.369l-10.6-32.34h4.666l9.74 29.845h-2.356l10.103-29.844h4.167l9.876 29.844h-2.265l9.876-29.844h4.304l-10.601 32.339h-4.757l-9.241-27.673h1.223l-9.287 27.673h-4.848zm49.659 0v-28.32H170.77v-4.02H197v4.02h-10.873v28.32h-4.485zM71.31 2.014C34.915 31.29-21.756 76.95 82.186 51.165M77.352 2.417c-26.32 24.173-72.518 65.67 4.835 42.705M81.784 8.058c-18.398 16.92-44.155 47.297 0 31.827"/><path d="M82.187 21.352c-7.655 6.044-22.964 22.965 0 11.684M2.014 59.223c-1.208-5.372 4.27-18.29 18.13-26.993 17.324-10.877 20.144-5.64 40.69-30.216M2.014 35.453C27.8 24.173 66.153 1.047 13.295 2.014M7.655 2.417c16.115 2.955 43.913 8.46-6.044 27.799"/><path d="M1.611 10.878c14.101 1.074 37.065 1.611 0 11.28m80.173 39.079c-9.4 0-33.278.403-42.302 8.46-9.024 8.058-28.739-4.565-37.87-12.086M47.942 81.784c3.358-6.715 6.85-19.74 33.842-14.906"/><path d="M61.64 81.784c.672-6.446 2.82-17.727 20.144-9.669M2.417 70.504c9.67.268 33.842 4.834 12.087 11.28M2.014 76.144c6.715-1.209 22.159-1.209 7.252 5.64"/><rect x="2" y="2" width="79.799" height="79.799" rx="9"/></svg><svg viewBox="0 0 23 15" id="menu" xmlns="http://www.w3.org/2000/svg"><path d="M1.5 7.5h20m-8 6h8m-20-12h8"/></svg><svg viewBox="0 0 50 50" id="phone" xmlns="http://www.w3.org/2000/svg"><path d="M29.629 7.402a1.544 1.544 0 011.914-1.094 17.187 17.187 0 0112.148 12.149 1.541 1.541 0 01-1.093 1.914 1.483 1.483 0 01-.41.059 1.562 1.562 0 01-1.504-1.172 14.18 14.18 0 00-9.942-9.942 1.543 1.543 0 01-1.113-1.914zm-.508 7.95a7.89 7.89 0 015.527 5.527 1.544 1.544 0 001.504 1.172 1.25 1.25 0 00.391-.059 1.543 1.543 0 001.113-1.914 10.898 10.898 0 00-7.734-7.734 1.564 1.564 0 00-1.85 2.31 1.562 1.562 0 001.05.697zm16.113 18.847a10.976 10.976 0 01-10.859 9.55C18.867 43.75 6.25 31.134 6.25 15.626a10.977 10.977 0 019.55-10.86 3.183 3.183 0 013.262 1.875l3.926 9.16a3.106 3.106 0 01-.273 2.95l-3.242 4.96a14.94 14.94 0 006.875 6.837l4.902-3.262a3.048 3.048 0 012.95-.254l9.16 3.906a3.183 3.183 0 011.874 3.262zm-3.105-.39l-9.16-3.907-4.883 3.262a3.124 3.124 0 01-3.066.215 18.066 18.066 0 01-8.36-8.32 3.125 3.125 0 01.195-3.067l3.262-4.96-3.926-9.161a7.812 7.812 0 00-6.816 7.754 25.02 25.02 0 0025 25 7.813 7.813 0 007.754-6.816z"/></svg><svg viewBox="0 0 57 54" id="right" xmlns="http://www.w3.org/2000/svg"><path d="M54.083 27l-25 25M2 27h52.083H2zm52.083 0l-25-25 25 25z"/></svg></svg>